<svg xmlns="http://www.w3.org/2000/svg" viewBox="0 0 512 512">
  <defs>
    <linearGradient id="bg" x1="0" y1="0" x2="1" y2="1">
      <stop offset="0" stop-color="#ff2ec4"/><stop offset="1" stop-color="#8f0a6e"/>
    </linearGradient>
    <pattern id="dots" width="34" height="34" patternUnits="userSpaceOnUse">
      <circle cx="6" cy="6" r="4" fill="#0d0210" opacity=".28"/>
    </pattern>
  </defs>
  <rect width="512" height="512" fill="url(#bg)"/>
  <rect width="512" height="512" fill="url(#dots)"/>
  <!-- cyan offset star (misprint layer) -->
  <path d="M269 76l55 111 123 18-89 87 21 122-110-58-110 58 21-122-89-87 123-18z"
    fill="#45d8ff" opacity=".85"/>
  <!-- main star -->
  <path d="M256 62l55 111 123 18-89 87 21 122-110-58-110 58 21-122-89-87 123-18z"
    fill="#fff" stroke="#0d0210" stroke-width="20" stroke-linejoin="round"/>
  <!-- lightning bolt -->
  <path d="M276 170l-64 106h44l-24 84 78-118h-46l38-72z"
    fill="#ffe14d" stroke="#0d0210" stroke-width="12" stroke-linejoin="round"/>
</svg>
